<?xml version="1.0" encoding="UTF-8" standalone="no"?>
<!-- Created with Inkscape (http://www.inkscape.org/) -->

<svg
   version="1.1"
   id="svg1"
   width="628.70667"
   height="380.56"
   viewBox="0 0 628.70667 380.56"
   sodipodi:docname="decohoney.eps"
   xmlns:inkscape="http://www.inkscape.org/namespaces/inkscape"
   xmlns:sodipodi="http://sodipodi.sourceforge.net/DTD/sodipodi-0.dtd"
   xmlns="http://www.w3.org/2000/svg"
   xmlns:svg="http://www.w3.org/2000/svg">
  <defs
     id="defs1" />
  <sodipodi:namedview
     id="namedview1"
     pagecolor="#ffffff"
     bordercolor="#000000"
     borderopacity="0.25"
     inkscape:showpageshadow="2"
     inkscape:pageopacity="0.0"
     inkscape:pagecheckerboard="0"
     inkscape:deskcolor="#d1d1d1">
    <inkscape:page
       x="0"
       y="0"
       inkscape:label="1"
       id="page1"
       width="628.70667"
       height="380.56"
       margin="0"
       bleed="0" />
  </sodipodi:namedview>
  <g
     id="g1"
     inkscape:groupmode="layer"
     inkscape:label="1">
    <g
       id="group-R5">
      <path
         id="path2"
         d="m 3276.71,2422.19 -574.8,325.2 -573.59,-325.2 v -649.2 l 573.59,-325.2 574.8,325.2 z"
         style="fill:none;stroke:#000000;stroke-width:30;stroke-linecap:round;stroke-linejoin:miter;stroke-miterlimit:8;stroke-dasharray:none;stroke-opacity:1"
         transform="matrix(0.13333333,0,0,-0.13333333,0,380.56)" />
      <path
         id="path3"
         d="m 4425.12,2422.19 -573.6,325.2 -574.81,-325.2 v -649.2 l 574.81,-325.2 573.6,325.2 z"
         style="fill:none;stroke:#000000;stroke-width:30;stroke-linecap:round;stroke-linejoin:miter;stroke-miterlimit:8;stroke-dasharray:none;stroke-opacity:1"
         transform="matrix(0.13333333,0,0,-0.13333333,0,380.56)" />
      <path
         id="path4"
         d="m 3850.32,1454.99 -574.8,325.2 -573.61,-325.2 V 805.793 l 573.61,-325.199 574.8,325.199 z"
         style="fill:none;stroke:#000000;stroke-width:30;stroke-linecap:round;stroke-linejoin:miter;stroke-miterlimit:8;stroke-dasharray:none;stroke-opacity:1"
         transform="matrix(0.13333333,0,0,-0.13333333,0,380.56)" />
      <path
         id="path5"
         d="m 2701.91,1453.79 -574.79,325.2 -573.6,-325.2 V 803.391 l 573.6,-323.996 574.79,323.996 z"
         style="fill:none;stroke:#000000;stroke-width:30;stroke-linecap:round;stroke-linejoin:miter;stroke-miterlimit:8;stroke-dasharray:none;stroke-opacity:1"
         transform="matrix(0.13333333,0,0,-0.13333333,0,380.56)" />
      <text
         id="text5"
         xml:space="preserve"
         transform="matrix(1.3333333,0,0,1.3325871,224.736,275.84067)"><tspan
           id="tspan5"
           style="font-style:italic;font-variant:normal;font-weight:normal;font-size:24.974px;font-family:Times-Italic;writing-mode:lr-tb;fill:#000000;fill-opacity:1;fill-rule:nonzero;stroke:none"
           x="0"
           y="0">i</tspan><tspan
           id="tspan6"
           style="font-style:italic;font-variant:normal;font-weight:normal;font-size:24.974px;font-family:Times-Italic;writing-mode:lr-tb;fill:#000000;fill-opacity:1;fill-rule:nonzero;stroke:none"
           x="2.999999"
           y="-56.551552">j</tspan></text>
      <path
         id="path6"
         d="m 2111.52,1840.19 c -40.81,0 -74.4,-33.6 -74.4,-75.6 0,-42 33.59,-75.6 74.4,-75.6 42,0 75.6,33.6 75.6,75.6 0,42 -33.6,75.6 -75.6,75.6"
         style="fill:#000000;fill-opacity:1;fill-rule:evenodd;stroke:none"
         transform="matrix(0.13333333,0,0,-0.13333333,0,380.56)" />
      <path
         id="path7"
         d="m 2111.52,1840.19 c -40.81,0 -74.4,-33.6 -74.4,-75.6 0,-42 33.59,-75.6 74.4,-75.6 42,0 75.6,33.6 75.6,75.6 0,42 -33.6,75.6 -75.6,75.6 z"
         style="fill:none;stroke:#000000;stroke-width:30;stroke-linecap:round;stroke-linejoin:round;stroke-miterlimit:10;stroke-dasharray:none;stroke-opacity:1"
         transform="matrix(0.13333333,0,0,-0.13333333,0,380.56)" />
      <path
         id="path8"
         d="m 2112.71,2504.99 c -40.8,0 -74.39,-33.6 -74.39,-75.6 0,-42 33.59,-75.6 74.39,-75.6 42,0 75.61,33.6 75.61,75.6 0,42 -33.61,75.6 -75.61,75.6"
         style="fill:#000000;fill-opacity:1;fill-rule:evenodd;stroke:none"
         transform="matrix(0.13333333,0,0,-0.13333333,0,380.56)" />
      <path
         id="path9"
         d="m 2112.71,2504.99 c -40.8,0 -74.39,-33.6 -74.39,-75.6 0,-42 33.59,-75.6 74.39,-75.6 42,0 75.61,33.6 75.61,75.6 0,42 -33.61,75.6 -75.61,75.6 z"
         style="fill:none;stroke:#000000;stroke-width:30;stroke-linecap:round;stroke-linejoin:round;stroke-miterlimit:10;stroke-dasharray:none;stroke-opacity:1"
         transform="matrix(0.13333333,0,0,-0.13333333,0,380.56)" />
      <path
         id="path10"
         d="m 2716.32,2807.39 c -40.8,0 -74.41,-33.6 -74.41,-75.6 0,-42 33.61,-75.6 74.41,-75.6 42,0 75.59,33.6 75.59,75.6 0,42 -33.59,75.6 -75.59,75.6"
         style="fill:#000000;fill-opacity:1;fill-rule:evenodd;stroke:none"
         transform="matrix(0.13333333,0,0,-0.13333333,0,380.56)" />
      <path
         id="path11"
         d="m 2716.32,2807.39 c -40.8,0 -74.41,-33.6 -74.41,-75.6 0,-42 33.61,-75.6 74.41,-75.6 42,0 75.59,33.6 75.59,75.6 0,42 -33.59,75.6 -75.59,75.6 z"
         style="fill:none;stroke:#000000;stroke-width:30;stroke-linecap:round;stroke-linejoin:round;stroke-miterlimit:10;stroke-dasharray:none;stroke-opacity:1"
         transform="matrix(0.13333333,0,0,-0.13333333,0,380.56)" />
      <path
         id="path12"
         d="m 3291.12,2504.99 c -40.8,0 -74.41,-33.6 -74.41,-75.6 0,-42 33.61,-75.6 74.41,-75.6 42,0 75.59,33.6 75.59,75.6 0,42 -33.59,75.6 -75.59,75.6"
         style="fill:#000000;fill-opacity:1;fill-rule:evenodd;stroke:none"
         transform="matrix(0.13333333,0,0,-0.13333333,0,380.56)" />
      <path
         id="path13"
         d="m 3291.12,2504.99 c -40.8,0 -74.41,-33.6 -74.41,-75.6 0,-42 33.61,-75.6 74.41,-75.6 42,0 75.59,33.6 75.59,75.6 0,42 -33.59,75.6 -75.59,75.6 z"
         style="fill:none;stroke:#000000;stroke-width:30;stroke-linecap:round;stroke-linejoin:round;stroke-miterlimit:10;stroke-dasharray:none;stroke-opacity:1"
         transform="matrix(0.13333333,0,0,-0.13333333,0,380.56)" />
      <path
         id="path14"
         d="m 3289.91,1870.19 c -40.79,0 -74.39,-33.6 -74.39,-75.6 0,-42 33.6,-75.6 74.39,-75.6 42,0 75.61,33.6 75.61,75.6 0,42 -33.61,75.6 -75.61,75.6"
         style="fill:#000000;fill-opacity:1;fill-rule:evenodd;stroke:none"
         transform="matrix(0.13333333,0,0,-0.13333333,0,380.56)" />
      <path
         id="path15"
         d="m 3289.91,1870.19 c -40.79,0 -74.39,-33.6 -74.39,-75.6 0,-42 33.6,-75.6 74.39,-75.6 42,0 75.61,33.6 75.61,75.6 0,42 -33.61,75.6 -75.61,75.6 z"
         style="fill:none;stroke:#000000;stroke-width:30;stroke-linecap:round;stroke-linejoin:round;stroke-miterlimit:10;stroke-dasharray:none;stroke-opacity:1"
         transform="matrix(0.13333333,0,0,-0.13333333,0,380.56)" />
      <path
         id="path16"
         d="m 3867.12,1537.79 c -42,0 -75.6,-33.6 -75.6,-75.6 0,-42 33.6,-75.6 75.6,-75.6 40.79,0 74.4,33.6 74.4,75.6 0,42 -33.61,75.6 -74.4,75.6"
         style="fill:#000000;fill-opacity:1;fill-rule:evenodd;stroke:none"
         transform="matrix(0.13333333,0,0,-0.13333333,0,380.56)" />
      <path
         id="path17"
         d="m 3867.12,1537.79 c -42,0 -75.6,-33.6 -75.6,-75.6 0,-42 33.6,-75.6 75.6,-75.6 40.79,0 74.4,33.6 74.4,75.6 0,42 -33.61,75.6 -74.4,75.6 z"
         style="fill:none;stroke:#000000;stroke-width:30;stroke-linecap:round;stroke-linejoin:round;stroke-miterlimit:10;stroke-dasharray:none;stroke-opacity:1"
         transform="matrix(0.13333333,0,0,-0.13333333,0,380.56)" />
      <path
         id="path18"
         d="m 4440.71,1870.19 c -42,0 -75.59,-33.6 -75.59,-75.6 0,-42 33.59,-75.6 75.59,-75.6 40.81,0 74.41,33.6 74.41,75.6 0,42 -33.6,75.6 -74.41,75.6"
         style="fill:#000000;fill-opacity:1;fill-rule:evenodd;stroke:none"
         transform="matrix(0.13333333,0,0,-0.13333333,0,380.56)" />
      <path
         id="path19"
         d="m 4440.71,1870.19 c -42,0 -75.59,-33.6 -75.59,-75.6 0,-42 33.59,-75.6 75.59,-75.6 40.81,0 74.41,33.6 74.41,75.6 0,42 -33.6,75.6 -74.41,75.6 z"
         style="fill:none;stroke:#000000;stroke-width:30;stroke-linecap:round;stroke-linejoin:round;stroke-miterlimit:10;stroke-dasharray:none;stroke-opacity:1"
         transform="matrix(0.13333333,0,0,-0.13333333,0,380.56)" />
      <path
         id="path20"
         d="m 4441.91,2504.99 c -42,0 -75.59,-33.6 -75.59,-75.6 0,-42 33.59,-75.6 75.59,-75.6 40.8,0 74.41,33.6 74.41,75.6 0,42 -33.61,75.6 -74.41,75.6"
         style="fill:#000000;fill-opacity:1;fill-rule:evenodd;stroke:none"
         transform="matrix(0.13333333,0,0,-0.13333333,0,380.56)" />
      <path
         id="path21"
         d="m 4441.91,2504.99 c -42,0 -75.59,-33.6 -75.59,-75.6 0,-42 33.59,-75.6 75.59,-75.6 40.8,0 74.41,33.6 74.41,75.6 0,42 -33.61,75.6 -74.41,75.6 z"
         style="fill:none;stroke:#000000;stroke-width:30;stroke-linecap:round;stroke-linejoin:round;stroke-miterlimit:10;stroke-dasharray:none;stroke-opacity:1"
         transform="matrix(0.13333333,0,0,-0.13333333,0,380.56)" />
      <path
         id="path22"
         d="m 3865.91,2807.39 c -42,0 -75.59,-33.6 -75.59,-75.6 0,-42 33.59,-75.6 75.59,-75.6 40.8,0 74.41,33.6 74.41,75.6 0,42 -33.61,75.6 -74.41,75.6"
         style="fill:#000000;fill-opacity:1;fill-rule:evenodd;stroke:none"
         transform="matrix(0.13333333,0,0,-0.13333333,0,380.56)" />
      <path
         id="path23"
         d="m 3865.91,2807.39 c -42,0 -75.59,-33.6 -75.59,-75.6 0,-42 33.59,-75.6 75.59,-75.6 40.8,0 74.41,33.6 74.41,75.6 0,42 -33.61,75.6 -74.41,75.6 z"
         style="fill:none;stroke:#000000;stroke-width:30;stroke-linecap:round;stroke-linejoin:round;stroke-miterlimit:10;stroke-dasharray:none;stroke-opacity:1"
         transform="matrix(0.13333333,0,0,-0.13333333,0,380.56)" />
      <path
         id="path24"
         d="m 3865.91,902.992 c -42,0 -75.59,-33.601 -75.59,-75.601 0,-42 33.59,-75.598 75.59,-75.598 40.8,0 74.41,33.598 74.41,75.598 0,42 -33.61,75.601 -74.41,75.601"
         style="fill:#000000;fill-opacity:1;fill-rule:evenodd;stroke:none"
         transform="matrix(0.13333333,0,0,-0.13333333,0,380.56)" />
      <path
         id="path25"
         d="m 3865.91,902.992 c -42,0 -75.59,-33.601 -75.59,-75.601 0,-42 33.59,-75.598 75.59,-75.598 40.8,0 74.41,33.598 74.41,75.598 0,42 -33.61,75.601 -74.41,75.601 z"
         style="fill:none;stroke:#000000;stroke-width:30;stroke-linecap:round;stroke-linejoin:round;stroke-miterlimit:10;stroke-dasharray:none;stroke-opacity:1"
         transform="matrix(0.13333333,0,0,-0.13333333,0,380.56)" />
      <path
         id="path26"
         d="m 3289.91,570.594 c -40.79,0 -74.39,-34.801 -74.39,-75.602 0,-42 33.6,-75.597 74.39,-75.597 42,0 75.61,33.597 75.61,75.597 0,40.801 -33.61,75.602 -75.61,75.602"
         style="fill:#000000;fill-opacity:1;fill-rule:evenodd;stroke:none"
         transform="matrix(0.13333333,0,0,-0.13333333,0,380.56)" />
      <path
         id="path27"
         d="m 3289.91,570.594 c -40.79,0 -74.39,-34.801 -74.39,-75.602 0,-42 33.6,-75.597 74.39,-75.597 42,0 75.61,33.597 75.61,75.597 0,40.801 -33.61,75.602 -75.61,75.602 z"
         style="fill:none;stroke:#000000;stroke-width:30;stroke-linecap:round;stroke-linejoin:round;stroke-miterlimit:10;stroke-dasharray:none;stroke-opacity:1"
         transform="matrix(0.13333333,0,0,-0.13333333,0,380.56)" />
      <path
         id="path28"
         d="m 2716.32,902.992 c -40.8,0 -74.41,-33.601 -74.41,-75.601 0,-42 33.61,-75.598 74.41,-75.598 42,0 75.59,33.598 75.59,75.598 0,42 -33.59,75.601 -75.59,75.601"
         style="fill:#000000;fill-opacity:1;fill-rule:evenodd;stroke:none"
         transform="matrix(0.13333333,0,0,-0.13333333,0,380.56)" />
      <path
         id="path29"
         d="m 2716.32,902.992 c -40.8,0 -74.41,-33.601 -74.41,-75.601 0,-42 33.61,-75.598 74.41,-75.598 42,0 75.59,33.598 75.59,75.598 0,42 -33.59,75.601 -75.59,75.601 z"
         style="fill:none;stroke:#000000;stroke-width:30;stroke-linecap:round;stroke-linejoin:round;stroke-miterlimit:10;stroke-dasharray:none;stroke-opacity:1"
         transform="matrix(0.13333333,0,0,-0.13333333,0,380.56)" />
      <path
         id="path30"
         d="m 2141.52,600.594 c -40.81,0 -74.4,-34.801 -74.4,-75.602 0,-42 33.59,-75.597 74.4,-75.597 42,0 75.6,33.597 75.6,75.597 0,40.801 -33.6,75.602 -75.6,75.602"
         style="fill:#000000;fill-opacity:1;fill-rule:evenodd;stroke:none"
         transform="matrix(0.13333333,0,0,-0.13333333,0,380.56)" />
      <path
         id="path31"
         d="m 2141.52,600.594 c -40.81,0 -74.4,-34.801 -74.4,-75.602 0,-42 33.59,-75.597 74.4,-75.597 42,0 75.6,33.597 75.6,75.597 0,40.801 -33.6,75.602 -75.6,75.602 z"
         style="fill:none;stroke:#000000;stroke-width:30;stroke-linecap:round;stroke-linejoin:round;stroke-miterlimit:10;stroke-dasharray:none;stroke-opacity:1"
         transform="matrix(0.13333333,0,0,-0.13333333,0,380.56)" />
      <path
         id="path32"
         d="m 1566.71,902.992 c -42,0 -75.59,-33.601 -75.59,-75.601 0,-42 33.59,-75.598 75.59,-75.598 40.81,0 74.41,33.598 74.41,75.598 0,42 -33.6,75.601 -74.41,75.601"
         style="fill:#000000;fill-opacity:1;fill-rule:evenodd;stroke:none"
         transform="matrix(0.13333333,0,0,-0.13333333,0,380.56)" />
      <path
         id="path33"
         d="m 1566.71,902.992 c -42,0 -75.59,-33.601 -75.59,-75.601 0,-42 33.59,-75.598 75.59,-75.598 40.81,0 74.41,33.598 74.41,75.598 0,42 -33.6,75.601 -74.41,75.601 z"
         style="fill:none;stroke:#000000;stroke-width:30;stroke-linecap:round;stroke-linejoin:round;stroke-miterlimit:10;stroke-dasharray:none;stroke-opacity:1"
         transform="matrix(0.13333333,0,0,-0.13333333,0,380.56)" />
      <path
         id="path34"
         d="m 1566.71,1537.79 c -42,0 -75.59,-33.6 -75.59,-75.6 0,-42 33.59,-75.6 75.59,-75.6 40.81,0 74.41,33.6 74.41,75.6 0,42 -33.6,75.6 -74.41,75.6"
         style="fill:#000000;fill-opacity:1;fill-rule:evenodd;stroke:none"
         transform="matrix(0.13333333,0,0,-0.13333333,0,380.56)" />
      <path
         id="path35"
         d="m 1566.71,1537.79 c -42,0 -75.59,-33.6 -75.59,-75.6 0,-42 33.59,-75.6 75.59,-75.6 40.81,0 74.41,33.6 74.41,75.6 0,42 -33.6,75.6 -74.41,75.6 z"
         style="fill:none;stroke:#000000;stroke-width:30;stroke-linecap:round;stroke-linejoin:round;stroke-miterlimit:10;stroke-dasharray:none;stroke-opacity:1"
         transform="matrix(0.13333333,0,0,-0.13333333,0,380.56)" />
      <path
         id="path36"
         d="m 2717.52,1537.79 c -40.81,0 -74.4,-33.6 -74.4,-75.6 0,-42 33.59,-75.6 74.4,-75.6 42,0 75.6,33.6 75.6,75.6 0,42 -33.6,75.6 -75.6,75.6"
         style="fill:#000000;fill-opacity:1;fill-rule:evenodd;stroke:none"
         transform="matrix(0.13333333,0,0,-0.13333333,0,380.56)" />
      <path
         id="path37"
         d="m 2717.52,1537.79 c -40.81,0 -74.4,-33.6 -74.4,-75.6 0,-42 33.59,-75.6 74.4,-75.6 42,0 75.6,33.6 75.6,75.6 0,42 -33.6,75.6 -75.6,75.6 z"
         style="fill:none;stroke:#000000;stroke-width:30;stroke-linecap:round;stroke-linejoin:round;stroke-miterlimit:10;stroke-dasharray:none;stroke-opacity:1"
         transform="matrix(0.13333333,0,0,-0.13333333,0,380.56)" />
      <path
         id="path38"
         d="m 720.715,2291.39 c -276,0 -499.195,-229.2 -499.195,-513.6 0,-283.2 223.195,-512.4 499.195,-512.4 276,0 499.195,229.2 499.195,512.4 0,284.4 -223.195,513.6 -499.195,513.6 z"
         style="fill:none;stroke:#000000;stroke-width:19.9999;stroke-linecap:butt;stroke-linejoin:round;stroke-miterlimit:10;stroke-dasharray:79.9999, 59.9999;stroke-dashoffset:0;stroke-opacity:1"
         transform="matrix(0.13333333,0,0,-0.13333333,0,380.56)" />
      <path
         id="path39"
         d="m 720.715,1476.59 256.801,453.6 H 463.914 Z"
         style="fill:none;stroke:#000000;stroke-width:34.9999;stroke-linecap:round;stroke-linejoin:miter;stroke-miterlimit:8;stroke-dasharray:none;stroke-opacity:1"
         transform="matrix(0.13333333,0,0,-0.13333333,0,380.56)" />
      <path
         id="path40"
         d="m 1485.12,1462.19 -25.21,15.6 15.61,25.2 25.19,-14.4 z m -51.6,31.2 -25.2,15.6 15.59,25.2 25.21,-15.6 z m -51.61,31.2 -25.2,15.6 15.61,25.2 25.2,-15.6 z m -50.39,31.2 -26.4,15.6 15.59,25.2 26.41,-15.6 z m -36,-14.4 -105.61,116.4 152.41,-39.6"
         style="fill:#000000;fill-opacity:1;fill-rule:nonzero;stroke:none"
         transform="matrix(0.13333333,0,0,-0.13333333,0,380.56)" />
      <text
         id="text40"
         xml:space="preserve"
         transform="matrix(1.3333333,0,0,1.3326004,136.256,128.96133)"><tspan
           id="tspan40"
           style="font-variant:normal;font-weight:normal;font-size:18.0099px;font-family:Helvetica;writing-mode:lr-tb;fill:#000000;fill-opacity:1;fill-rule:nonzero;stroke:none"
           x="0"
           y="0">1</tspan><tspan
           id="tspan41"
           style="font-variant:normal;font-weight:normal;font-size:18.0099px;font-family:Helvetica;writing-mode:lr-tb;fill:#000000;fill-opacity:1;fill-rule:nonzero;stroke:none"
           x="-72.719971"
           y="-1.3210362">2</tspan><tspan
           id="tspan42"
           style="font-variant:normal;font-weight:normal;font-size:18.0099px;font-family:Helvetica;writing-mode:lr-tb;fill:#000000;fill-opacity:1;fill-rule:nonzero;stroke:none"
           x="-33.239872"
           y="60.512955">3</tspan></text>
      <path
         id="path42"
         d="m 690.715,1081.79 c -276,0 -499.195,-230.399 -499.195,-513.599 0,-283.199 223.195,-512.398 499.195,-512.398 276,0 499.195,229.199 499.195,512.398 0,283.2 -223.195,513.599 -499.195,513.599 z"
         style="fill:none;stroke:#000000;stroke-width:19.9999;stroke-linecap:butt;stroke-linejoin:round;stroke-miterlimit:10;stroke-dasharray:79.9999, 59.9999;stroke-dashoffset:0;stroke-opacity:1"
         transform="matrix(0.13333333,0,0,-0.13333333,0,380.56)" />
      <path
         id="path43"
         d="M 690.715,841.793 433.914,388.191 h 513.602 z"
         style="fill:none;stroke:#000000;stroke-width:34.9999;stroke-linecap:round;stroke-linejoin:miter;stroke-miterlimit:8;stroke-dasharray:none;stroke-opacity:1"
         transform="matrix(0.13333333,0,0,-0.13333333,0,380.56)" />
      <text
         id="text43"
         xml:space="preserve"
         transform="matrix(1.3333333,0,0,1.3326004,132.0964,340.96053)"><tspan
           id="tspan43"
           style="font-variant:normal;font-weight:normal;font-size:18.0099px;font-family:Helvetica;writing-mode:lr-tb;fill:#000000;fill-opacity:1;fill-rule:nonzero;stroke:none"
           x="0"
           y="0">2</tspan><tspan
           id="tspan44"
           style="font-variant:normal;font-weight:normal;font-size:18.0099px;font-family:Helvetica;writing-mode:lr-tb;fill:#000000;fill-opacity:1;fill-rule:nonzero;stroke:none"
           x="-33.239872"
           y="-60.512962">3</tspan><tspan
           id="tspan45"
           style="font-variant:normal;font-weight:normal;font-size:18.0099px;font-family:Helvetica;writing-mode:lr-tb;fill:#000000;fill-opacity:1;fill-rule:nonzero;stroke:none"
           x="-69.480095"
           y="1.3210262">1</tspan></text>
      <path
         id="path45"
         d="m 1530.71,738.594 -26.39,-15.602 -14.41,26.403 25.21,14.398 z m -51.59,-31.199 -25.21,-15.602 -15.59,26.398 25.2,15.602 z m -51.6,-30 -25.2,-15.602 -15.61,25.199 25.2,15.602 z m -51.61,-31.204 -25.2,-15.597 -15.59,26.398 25.2,14.403 z m -3.59,-37.199 -152.41,-38.398 105.61,115.199"
         style="fill:#000000;fill-opacity:1;fill-rule:nonzero;stroke:none"
         transform="matrix(0.13333333,0,0,-0.13333333,0,380.56)" />
      <text
         id="text45"
         xml:space="preserve"
         transform="matrix(1.3333333,0,0,1.3325871,402.176,188.64133)"><tspan
           id="tspan46"
           style="font-variant:normal;font-weight:normal;font-size:21.9723px;font-family:Helvetica;writing-mode:lr-tb;fill:#000000;fill-opacity:1;fill-rule:nonzero;stroke:none"
           x="0"
           dx="0 -80.586258"
           y="0">xy</tspan><tspan
           id="tspan47"
           style="font-variant:normal;font-weight:normal;font-size:21.9723px;font-family:Helvetica;writing-mode:lr-tb;fill:#000000;fill-opacity:1;fill-rule:nonzero;stroke:none"
           x="-24.239866"
           y="33.258415">z</tspan></text>
    </g>
  </g>
</svg>
